# This file uses centimeters as units for non-parametric coordinates.

mtllib manifold_export.mtl
g default


#VERTEX
v 0.500000 -0.000000 1.500000
v 1.500000 -0.000000 1.500000
v 0.500000 -0.000000 0.500000
v 1.500000 -0.000000 0.500000
v -0.500000 -0.000000 0.500000
v -0.500000 0.000000 -0.500000
v 0.500000 0.000000 -0.500000

#TEXTURE INFO
vt 0.000000 0.000000
vt 1.000000 0.000000
vt 0.000000 1.000000
vt 1.000000 1.000000
vt 0.000000 0.000000
vt 1.000000 0.000000
vt 1.000000 1.000000
vt 0.000000 1.000000
#NORMAL INFO
vn 0.000000 1.000000 0.000000
vn 0.000000 1.000000 0.000000
vn 0.000000 1.000000 0.000000
vn 0.000000 1.000000 0.000000
vn 0.000000 1.000000 0.000000
vn 0.000000 1.000000 0.000000
vn 0.000000 1.000000 0.000000
vn 0.000000 1.000000 0.000000
s off
g pPlane3
usemtl initialShadingGroup


#FACES
f 1/1/1 2/2/2 4/4/3 3/3/4
f 5/5/5 3/6/6 7/7/7 6/8/8
